<?xml version="1.0" standalone="yes"?>

<svg version="1.1" viewBox="0.0 0.0 377.9527559055118 377.9527559055118" fill="none" stroke="none" stroke-linecap="square" stroke-miterlimit="10" xmlns="http://www.w3.org/2000/svg" xmlns:xlink="http://www.w3.org/1999/xlink"><clipPath id="p.0"><path d="m0 0l377.95276 0l0 377.95276l-377.95276 0l0 -377.95276z" clip-rule="nonzero"></path></clipPath><g clip-path="url(#p.0)"><path fill="#000000" fill-opacity="0.0" d="m0 0l377.95276 0l0 377.95276l-377.95276 0z" fill-rule="evenodd"></path><path fill="#4a86e8" d="m0 0l377.95276 0l0 377.95276l-377.95276 0z" fill-rule="evenodd"></path><path fill="#000000" fill-opacity="0.0" d="m0 59.54331l377.95276 0l0 258.86615l-377.95276 0z" fill-rule="evenodd"></path><path fill="#b7b7b7" d="m18.822388 202.74826q8.546875 -0.234375 13.921875 -4.609375q5.375 -4.375 7.140625 -12.015625q1.78125 -7.65625 1.890625 -26.15625q0.109375 -18.515625 0.65625 -24.390625q1.0 -9.3125 3.71875 -14.96875q2.71875 -5.65625 6.703125 -9.03125q4.0 -3.375 10.203125 -5.15625q4.203125 -1.109375 13.734375 -1.109375l6.21875 0l0 17.40625l-3.4375 0q-11.53125 0 -15.296875 4.15625q-3.765625 4.15625 -3.765625 18.5625q0 29.046875 -1.21875 36.6875q-2.0 11.859375 -6.828125 18.296875q-4.8125 6.421875 -15.125 11.40625q12.1875 5.109375 17.671875 15.578125q5.5 10.46875 5.5 34.296875q0 21.625 0.4375 25.71875q0.890625 7.546875 4.484375 10.53125q3.609375 3.0 14.140625 3.0l3.4375 0l0 17.390625l-6.21875 0q-10.859375 0 -15.734375 -1.765625q-7.09375 -2.546875 -11.75 -8.265625q-4.65625 -5.703125 -6.046875 -14.46875q-1.375 -8.75 -1.484375 -28.6875q-0.109375 -19.953125 -1.890625 -27.59375q-1.765625 -7.65625 -7.140625 -12.09375q-5.375 -4.4375 -13.921875 -4.65625l0 -18.0625z" fill-rule="nonzero"></path><path fill="#ffffff" d="m103.17828 270.5764l0 -162.48438l19.953125 0l0 58.296875q13.953125 -16.1875 35.234375 -16.1875q13.078125 0 22.71875 5.15625q9.65625 5.15625 13.8125 14.25q4.15625 9.078125 4.15625 26.375l0 74.59375l-19.953125 0l0 -74.59375q0 -14.96875 -6.484375 -21.78125q-6.484375 -6.8125 -18.34375 -6.8125q-8.875 0 -16.6875 4.59375q-7.8125 4.59375 -11.140625 12.46875q-3.3125 7.875 -3.3125 21.734375l0 64.390625l-19.953125 0zm128.60228 0l0 -162.48438l61.29689 0q16.171875 0 24.71875 1.546875q11.96875 2.0 20.046875 7.59375q8.09375 5.59375 13.03125 15.6875q4.9375 10.078125 4.9375 22.15625q0 20.734375 -13.203125 35.09375q-13.1875 14.34375 -47.65625 14.34375l-41.67189 0l0 66.0625l-21.5 0zm21.5 -85.234375l42.01564 0q20.828125 0 29.578125 -7.75q8.765625 -7.765625 8.765625 -21.84375q0 -10.203125 -5.15625 -17.453125q-5.15625 -7.265625 -13.578125 -9.59375q-5.421875 -1.4375 -20.0625 -1.4375l-41.562515 0l0 58.078125z" fill-rule="nonzero"></path></g></svg>

