<?xml version="1.0" standalone="yes"?>

<svg version="1.1" viewBox="0.0 0.0 998.7690288713911 257.1128608923884" fill="none" stroke="none" stroke-linecap="square" stroke-miterlimit="10" xmlns="http://www.w3.org/2000/svg" xmlns:xlink="http://www.w3.org/1999/xlink"><clipPath id="p.0"><path d="m0 0l998.76904 0l0 257.11285l-998.76904 0l0 -257.11285z" clip-rule="nonzero"></path></clipPath><g clip-path="url(#p.0)"><path fill="#000000" fill-opacity="0.0" d="m0 0l998.76904 0l0 257.11285l-998.76904 0z" fill-rule="evenodd"></path><path fill="#000000" fill-opacity="0.0" d="m0 0l1003.6221 0l0 258.26773l-1003.6221 0z" fill-rule="evenodd"></path><path fill="#b7b7b7" d="m14.203125 132.325q7.03125 -0.1875 11.453125 -3.796875q4.4375 -3.609375 5.890625 -9.90625q1.46875 -6.296875 1.5625 -21.546875q0.09375 -15.25 0.546875 -20.09375q0.8125 -7.671875 3.046875 -12.328125q2.25 -4.65625 5.53125 -7.4375q3.296875 -2.78125 8.40625 -4.25q3.46875 -0.90625 11.3125 -0.90625l5.125 0l0 14.328125l-2.84375 0q-9.484375 0 -12.59375 3.4375q-3.109375 3.421875 -3.109375 15.28125q0 23.921875 -1.0 30.234375q-1.640625 9.765625 -5.625 15.0625q-3.96875 5.296875 -12.453125 9.40625q10.046875 4.203125 14.5625 12.828125q4.515625 8.625 4.515625 28.25q0 17.8125 0.375 21.1875q0.71875 6.21875 3.6875 8.671875q2.96875 2.46875 11.640625 2.46875l2.84375 0l0 14.34375l-5.125 0q-8.9375 0 -12.953125 -1.46875q-5.84375 -2.09375 -9.6875 -6.796875q-3.828125 -4.703125 -4.96875 -11.921875q-1.140625 -7.203125 -1.234375 -23.640625q-0.09375 -16.4375 -1.5625 -22.734375q-1.453125 -6.3125 -5.890625 -9.953125q-4.421875 -3.65625 -11.453125 -3.84375l0 -14.875z" fill-rule="nonzero"></path><path fill="#4a86e8" d="m84.49652 101.73125l-4.578125 -25.46875l0 -21.921875l18.71875 0l0 21.921875l-4.109375 25.46875l-10.03125 0zm30.21875 0l-4.484375 -25.46875l0 -21.921875l18.71875 0l0 21.921875l-4.375 25.46875l-9.859375 0zm35.21245 86.46875l0 -133.85938l16.4375 0l0 48.03125q11.5 -13.328125 29.03125 -13.328125q10.78125 0 18.71875 4.25q7.9375 4.234375 11.359375 11.734375q3.4375 7.484375 3.4375 21.71875l0 61.453125l-16.4375 0l0 -61.453125q0 -12.328125 -5.34375 -17.9375q-5.34375 -5.625 -15.109375 -5.625q-7.3125 0 -13.75 3.796875q-6.4375 3.78125 -9.171875 10.265625q-2.734375 6.484375 -2.734375 17.90625l0 53.046875l-16.4375 0zm167.09056 -11.96875q-9.140625 7.765625 -17.59375 10.96875q-8.4375 3.1875 -18.109375 3.1875q-15.984375 0 -24.578125 -7.796875q-8.578125 -7.8125 -8.578125 -19.953125q0 -7.125 3.234375 -13.015625q3.25 -5.890625 8.5 -9.453125q5.25 -3.5625 11.828125 -5.390625q4.84375 -1.265625 14.609375 -2.453125q19.90625 -2.375 29.3125 -5.671875q0.09375 -3.375 0.09375 -4.28125q0 -10.046875 -4.65625 -14.15625q-6.296875 -5.578125 -18.71875 -5.578125q-11.59375 0 -17.125 4.0625q-5.515625 4.0625 -8.171875 14.390625l-16.0625 -2.1875q2.1875 -10.328125 7.203125 -16.671875q5.03125 -6.34375 14.515625 -9.765625q9.5 -3.421875 22.015625 -3.421875q12.421875 0 20.171875 2.921875q7.765625 2.921875 11.40625 7.359375q3.65625 4.421875 5.125 11.171875q0.828125 4.203125 0.828125 15.15625l0 21.921875q0 22.90625 1.046875 28.984375q1.046875 6.078125 4.15625 11.640625l-17.171875 0q-2.5625 -5.109375 -3.28125 -11.96875zm-1.375 -36.703125q-8.953125 3.65625 -26.84375 6.21875q-10.140625 1.453125 -14.34375 3.28125q-4.1875 1.828125 -6.484375 5.34375q-2.28125 3.515625 -2.28125 7.8125q0 6.5625 4.96875 10.953125q4.984375 4.375 14.578125 4.375q9.5 0 16.890625 -4.15625q7.390625 -4.15625 10.875 -11.359375q2.640625 -5.578125 2.640625 -16.4375l0 -6.03125zm42.73117 -37.796875l-4.578125 -25.46875l0 -21.921875l18.71875 0l0 21.921875l-4.109375 25.46875l-10.03125 0zm30.21875 0l-4.484375 -25.46875l0 -21.921875l18.71875 0l0 21.921875l-4.375 25.46875l-9.859375 0z" fill-rule="nonzero"></path><path fill="#b7b7b7" d="m428.36816 109.95l0 -18.71875l18.71875 0l0 18.71875l-18.71875 0zm0 78.25l0 -18.71875l18.71875 0l0 18.71875l-18.71875 0z" fill-rule="nonzero"></path><path fill="#4a86e8" d="m476.49286 101.73125l-4.578125 -25.46875l0 -21.921875l18.71875 0l0 21.921875l-4.109375 25.46875l-10.03125 0zm30.21875 0l-4.484375 -25.46875l0 -21.921875l18.71875 0l0 21.921875l-4.375 25.46875l-9.859375 0zm37.306213 86.46875l0 -133.85938l50.5 0q13.328125 0 20.359375 1.28125q9.859375 1.640625 16.515625 6.25q6.671875 4.609375 10.734375 12.921875q4.0625 8.3125 4.0625 18.265625q0 17.078125 -10.859375 28.90625q-10.859375 11.8125 -39.265625 11.8125l-34.328125 0l0 54.421875l-17.71875 0zm17.71875 -70.21875l34.609375 0q17.15625 0 24.375 -6.390625q7.21875 -6.390625 7.21875 -17.984375q0 -8.40625 -4.25 -14.375q-4.25 -5.984375 -11.1875 -7.90625q-4.46875 -1.1875 -16.53125 -1.1875l-34.234375 0l0 47.84375zm171.06073 38.984375l16.984375 2.109375q-4.015625 14.875 -14.890625 23.09375q-10.859375 8.21875 -27.75 8.21875q-21.265625 0 -33.734375 -13.09375q-12.46875 -13.109375 -12.46875 -36.75q0 -24.484375 12.59375 -37.984375q12.609375 -13.515625 32.703125 -13.515625q19.453125 0 31.765625 13.234375q12.328125 13.234375 12.328125 37.25q0 1.46875 -0.09375 4.390625l-72.3125 0q0.921875 15.96875 9.046875 24.46875q8.125 8.484375 20.265625 8.484375q9.046875 0 15.4375 -4.734375q6.390625 -4.75 10.125 -15.171875zm-53.953125 -26.5625l54.140625 0q-1.09375 -12.234375 -6.203125 -18.359375q-7.859375 -9.484375 -20.375 -9.484375q-11.3125 0 -19.03125 7.578125q-7.71875 7.578125 -8.53125 20.265625zm91.38745 57.796875l0 -96.96875l14.796875 0l0 13.78125q10.671875 -15.96875 30.859375 -15.96875q8.765625 0 16.109375 3.15625q7.359375 3.140625 11.0 8.25q3.65625 5.109375 5.125 12.140625q0.90625 4.578125 0.90625 15.984375l0 59.625l-16.4375 0l0 -58.984375q0 -10.046875 -1.921875 -15.015625q-1.90625 -4.984375 -6.796875 -7.953125q-4.890625 -2.96875 -11.453125 -2.96875q-10.5 0 -18.125 6.671875q-7.625 6.65625 -7.625 25.296875l0 52.953125l-16.4375 0zm104.63745 -86.46875l-4.578125 -25.46875l0 -21.921875l18.71875 0l0 21.921875l-4.109375 25.46875l-10.03125 0zm30.21875 0l-4.484375 -25.46875l0 -21.921875l18.71875 0l0 21.921875l-4.375 25.46875l-9.859375 0z" fill-rule="nonzero"></path><path fill="#b7b7b7" d="m985.1284 132.325l0 14.875q-7.03125 0.1875 -11.46875 3.84375q-4.421875 3.640625 -5.890625 9.90625q-1.453125 6.25 -1.546875 21.5q-0.078125 15.25 -0.546875 20.078125q-0.8125 7.765625 -3.046875 12.375q-2.234375 4.609375 -5.53125 7.390625q-3.28125 2.796875 -8.390625 4.25q-3.484375 1.015625 -11.328125 1.015625l-5.109375 0l0 -14.34375l2.828125 0q9.5 0 12.59375 -3.421875q3.109375 -3.421875 3.109375 -15.390625q0 -22.828125 0.828125 -28.9375q1.453125 -10.140625 5.828125 -16.203125q4.390625 -6.078125 12.421875 -9.453125q-10.5 -5.03125 -14.796875 -13.28125q-4.28125 -8.265625 -4.28125 -27.90625q0 -17.796875 -0.453125 -21.265625q-0.640625 -6.125 -3.609375 -8.546875q-2.96875 -2.421875 -11.640625 -2.421875l-2.828125 0l0 -14.328125l5.109375 0q8.953125 0 12.96875 1.453125q5.84375 2.015625 9.671875 6.765625q3.84375 4.75 4.984375 11.96875q1.140625 7.203125 1.21875 23.640625q0.09375 16.4375 1.546875 22.6875q1.46875 6.25 5.890625 9.90625q4.4375 3.65625 11.46875 3.84375z" fill-rule="nonzero"></path></g></svg>

